<svg xmlns="http://www.w3.org/2000/svg" viewBox="0 0 64 115">
<!-- SVG created with Arrow, by QuiverAI (https://quiver.ai) -->
  <style type="text/css">.cls-0 {fill:#FFFFFF;}
.cls-1 {fill:url(#SVGID_1_);}</style>
  <rect class="cls-0" width="64" height="115"/>
  <linearGradient id="SVGID_1_" x1="31.71" x2="31.71" y1="114.1" y2="1.092" gradientUnits="userSpaceOnUse">
    <stop stop-color="#1548C4" offset="0"/>
    <stop stop-color="#069CD1" offset=".6499"/>
    <stop stop-color="#00CBA9" offset="1"/>
  </linearGradient>
  <path class="cls-1" d="m47.5 64.9-25.9-13.1c-7.1-3.3-12.7-11.1-12.8-20.6-0.1-10.8 9.3-23.9 22.9-23.9 12.6-0.3 23.6 9.7 23.6 22.7v2.6c0 0.4 0.4 0.8 0.8 0.8h5.1c0.4 0 0.8-0.4 0.8-0.8v-1.9c0-16-13-29.6-28.9-29.6-16.1-0.5-29.1 12.1-30.6 26.4-0.9 11.2 4.6 22.4 15.9 28.6l26.9 13.6c5.4 2.6 9.7 7.5 10.3 13.3 0.4 3.7-0.2 7.1-1.8 10-3.5 6.9-10.8 13.2-21.4 13.4-12.7 0.2-22.4-9-23.6-18.9-0.1-1-0.2-2.1-0.1-3.1 0-0.5-0.4-0.8-0.8-0.8h-4.6c-0.4 0-0.8 0.4-0.8 0.8 0 1.8 0.1 3.6 0.4 5.4 1.9 11.7 12.5 24 29 24.3 8.1 0.1 15-2.3 20.3-6.6 5-4.1 9.5-10.6 9.8-18.8 0.2-9.1-5.1-18.7-14.5-23.8z"/>
  <linearGradient id="SVGID_2_" x1="32.24" x2="32.24" y1="114.1" y2="1.134" gradientUnits="userSpaceOnUse">
    <stop stop-color="#1548C4" offset="0"/>
    <stop stop-color="#069CD1" offset=".6499"/>
    <stop stop-color="#00CBA9" offset="1"/>
  </linearGradient>
  <path d="m48 65.4-25.9-13.1c-7.1-3.3-12.7-9.9-13.6-18.5-1.3-11.9 9.1-26.6 24.1-26.5 11.9 0.1 22.8 9.3 22.8 22.3v2.9c0 0.4 0.4 0.9 0.8 0.9h5.1c0.4 0 0.8-0.4 0.8-0.9v-1.8c0-15.8-12.4-29.5-28.9-29.6-16.7-0.1-30.2 13-30.9 28.3-0.4 10.7 5.3 21.5 15.6 27.2l27.9 14.4c4.7 2.4 9.1 7.2 9.2 14.4 0.1 4.2-0.8 6.7-2.2 9.3-3.4 6.4-10.5 12.8-20.9 12.9-13.3 0.2-23-9.5-23.3-20.8v-2.3c0-0.4-0.4-0.9-0.8-0.9h-4.6c-0.4 0-0.8 0.4-0.8 0.9 0 1.6 0.1 3.3 0.3 4.9 1.6 12.4 12.8 24.5 29.3 24.7 8.1 0.1 14.9-2.5 20-6.5 5.3-4.2 9.8-10.8 10-19.8 0.2-9.1-5.3-17.8-14-22.4z" fill="url(#SVGID_2_)"/>
</svg>