<?xml version="1.0" encoding="UTF-8"?>
<svg xmlns="http://www.w3.org/2000/svg" version="1.1" viewBox="0 0 50 50">
  <defs>
    <style>
      .st0 {
        fill: #0ae8f0;
      }

      .st1 {
        fill: #006bff;
      }
    </style>
  </defs>
  <g id="Brand_mark">
    <path class="st1" d="M34.3,32.4c-1.6,1.4-3.6,3.2-7.3,3.2h-2.2c-2.7,0-5.1-.9-6.8-2.7-1.7-1.7-2.6-4-2.6-6.5v-2.9c0-2.5.9-4.8,2.6-6.5,1.7-1.7,4.1-2.7,6.8-2.7h2.2c3.7,0,5.7,1.8,7.3,3.2,1.7,1.5,3.1,2.7,7,2.7.6,0,1.2,0,1.8-.1h0c-.2-.6-.5-1.1-.8-1.7l-2.6-4.4c-2.4-4-6.7-6.5-11.5-6.5h-5.2c-4.7,0-9.1,2.5-11.5,6.5l-2.6,4.4c-2.4,4-2.4,9,0,13l2.6,4.4c2.4,4,6.7,6.5,11.5,6.5h5.2c4.7,0,9.1-2.5,11.5-6.5l2.6-4.4c.3-.5.6-1.1.8-1.6h0c-.6-.1-1.2-.2-1.8-.2-3.9,0-5.3,1.3-7,2.7"/>
    <path class="st1" d="M27,17.1h-2.2c-4,0-6.7,2.8-6.7,6.4v2.9c0,3.6,2.7,6.4,6.7,6.4h2.2c5.9,0,5.4-5.9,14.3-5.9.8,0,1.7,0,2.5.2.3-1.5.3-3,0-4.5-.8.2-1.7.2-2.5.2-8.9,0-8.4-5.9-14.3-5.9"/>
    <path class="st1" d="M48.9,29.4c-1.5-1.1-3.3-1.8-5.1-2.2h0c-.2.9-.4,1.8-.7,2.6,1.5.2,3,.8,4.2,1.7,0,0,0,0,0,0-3.7,11.8-16.4,18.4-28.4,14.7C6.8,42.7.1,30.2,3.8,18.4,7.5,6.7,20.2,0,32.2,3.7c7.2,2.2,12.8,7.7,15,14.7,0,0,0,0,0,0-1.2.9-2.7,1.5-4.2,1.7.3.8.6,1.7.7,2.5,0,0,0,0,0,0,1.8-.3,3.6-1.1,5.1-2.1,1.5-1.1,1.2-2.2,1-3C45.7,4.4,31.4-3,18,1.1,4.5,5.2-3,19.2,1.1,32.4c4.1,13.2,18.4,20.6,31.8,16.5,8.1-2.4,14.4-8.6,16.8-16.5.2-.7.5-1.9-1-3"/>
    <path class="st0" d="M43,20.2c-.6,0-1.2.1-1.8.1-3.9,0-5.3-1.3-7-2.7-1.6-1.4-3.6-3.2-7.3-3.2h-2.2c-2.7,0-5.1.9-6.8,2.7-1.7,1.7-2.6,4-2.6,6.5v2.9c0,2.5.9,4.8,2.6,6.5,1.7,1.7,4.1,2.7,6.8,2.7h2.2c3.7,0,5.7-1.8,7.3-3.2,1.7-1.5,3.1-2.7,7-2.7.6,0,1.2,0,1.8.1.3-.8.6-1.7.7-2.5,0,0,0,0,0,0-.8-.2-1.7-.2-2.5-.2-8.9,0-8.4,5.9-14.3,5.9h-2.2c-4,0-6.7-2.8-6.7-6.4v-2.9c0-3.6,2.7-6.4,6.7-6.4h2.2c5.9,0,5.4,5.9,14.3,5.9.8,0,1.7,0,2.5-.2h0c-.2-.9-.4-1.8-.7-2.6"/>
    <path class="st0" d="M43,20.2c-.6,0-1.2.1-1.8.1-3.9,0-5.3-1.3-7-2.7-1.6-1.4-3.6-3.2-7.3-3.2h-2.2c-2.7,0-5.1.9-6.8,2.7-1.7,1.7-2.6,4-2.6,6.5v2.9c0,2.5.9,4.8,2.6,6.5,1.7,1.7,4.1,2.7,6.8,2.7h2.2c3.7,0,5.7-1.8,7.3-3.2,1.7-1.5,3.1-2.7,7-2.7.6,0,1.2,0,1.8.1.3-.8.6-1.7.7-2.5,0,0,0,0,0,0-.8-.2-1.7-.2-2.5-.2-8.9,0-8.4,5.9-14.3,5.9h-2.2c-4,0-6.7-2.8-6.7-6.4v-2.9c0-3.6,2.7-6.4,6.7-6.4h2.2c5.9,0,5.4,5.9,14.3,5.9.8,0,1.7,0,2.5-.2h0c-.2-.9-.4-1.8-.7-2.6"/>
  </g>
</svg>
