<?xml version="1.0" encoding="UTF-8"?>
<svg xmlns="http://www.w3.org/2000/svg" version="1.1" viewBox="0 0 50 50">
  <defs>
    <style>
      .st0 {
        fill: #1565c0;
      }
    </style>
  </defs>
  <path class="st0" d="M49.2,27.3c-1.3-1.8-5.9-4.2-5.9-4.2,2-.2,4.2-.9,4.2-.9,2-.7,2.1-1.7,2.1-1.7.1-1.1-1.8-1.9-1.8-1.9-2.1-1.1-6.4-1.8-6.4-1.8,1.8-1,2.9-1.9,2.9-1.9,1.8-1.6,1.3-2.4,1.3-2.4-.3-1-2.3-1.2-2.3-1.2-1.8-.2-4.9.3-4.9.3,1.2-1.5,1.6-2.8,1.6-2.8.3-1.1-.1-1.6-.1-1.6-.5-.9-2.3-.5-2.3-.5-2.6.6-4.4,1.8-4.4,1.8.3-1.2.3-2.9.3-2.9,0-.6-.2-1.5-.8-1.9-.7-.5-1.8,0-2.4.3-.7.4-1.3,1-1.8,1.6,0,.1-.6.6-.6.7-.2-.6-.4-1.2-.6-1.9-.4-.9-1.3-2-2.3-2.1h0c-1.1,0-2,1.2-2.3,2.1-.2.6-.5,1.2-.6,1.9,0-.1-.5-.6-.6-.7-.5-.6-1.1-1.2-1.8-1.6-.7-.4-1.7-.9-2.4-.3-.6.4-.7,1.3-.8,1.9,0,0,0,1.7.3,2.9,0,0-1.8-1.2-4.4-1.8,0,0-1.8-.4-2.3.5,0,0-.4.5-.1,1.6,0,0,.4,1.4,1.6,2.8,0,0-3-.5-4.9-.3,0,0-2,.2-2.3,1.2,0,0-.5.8,1.3,2.4,0,0,1.1.9,2.9,1.9,0,0-4.3.6-6.4,1.8,0,0-1.9.9-1.8,1.9,0,0,0,1,2.1,1.7,0,0,2.2.7,4.2.9,0,0-4.6,2.4-5.9,4.2,0,0-1.1,1.1-.8,2,0,0,.2,1.2,3.5,1,0,0,2.5-.2,5.6-1.1,0,0,0,0,0,0,0,0-3,3.4-3.9,5.3,0,0-2,3.1-.8,4.3,0,0,.5.7,2.7,0,0,0,3.1-1,6.3-3.7,0,0-1.4,3.8-1.5,6.7,0,0-.3,2.9,1.2,3.5,0,0,1.2.6,3.6-1.8,0,0,2.8-3.1,4.5-6.2.2,1.7.5,3.5.9,5.2.3,1.1.6,2.1,1.1,3.1.4.7.9,1.8,1.9,1.8h0c.9,0,1.5-1.1,1.9-1.8.5-1,.8-2,1.1-3.1.4-1.7.7-3.5.9-5.2,1.6,3.1,4.5,6.2,4.5,6.2,2.4,2.4,3.6,1.8,3.6,1.8,1.5-.6,1.2-3.5,1.2-3.5-.1-2.9-1.5-6.7-1.5-6.7,3.2,2.6,6.3,3.7,6.3,3.7,2.1.7,2.7,0,2.7,0,1.2-1.2-.8-4.3-.8-4.3-.9-1.8-3.9-5.3-3.9-5.3,0,0,0,0,0,0,3.1.9,5.6,1.1,5.6,1.1,3.2.2,3.5-1,3.5-1,.3-1-.8-2-.8-2h0ZM43.9,26.9s-.5,1.8-7.5-.2c0,0-4-1.2-5.7-2.2,0,0,3.6,6.2,4,11.1,0,0,.2,2.4-.9,2.9,0,0-1.3.6-3.8-2.7,0,0-3.1-3.7-4.9-9.2-1.8,5.5-4.9,9.2-4.9,9.2-2.6,3.2-3.8,2.7-3.8,2.7-1.1-.4-.9-2.9-.9-2.9.4-4.9,4-11.1,4-11.1-1.7,1-5.7,2.2-5.7,2.2-7.1,2.1-7.5.2-7.5.2-.6-1.5,3.5-3.9,3.5-3.9,3.1-2,7.8-3.5,7.8-3.5-5.5-1.6-7.6-3.5-7.6-3.5-1.7-1.4-1.1-2.1-1.1-2.1.9-1.5,5.7-.5,5.7-.5,3.6.7,5.5,1.6,5.5,1.6-1.5-2.8-1.8-5.1-1.8-5.1-.5-3,.8-3.3.8-3.3,1-.3,2.4,1,2.4,1,2.7,2.8,3.6,5.6,3.6,5.6h0s.9-2.8,3.6-5.6c0,0,1.4-1.4,2.4-1,0,0,1.3.3.8,3.3,0,0-.3,2.4-1.8,5.1,0,0,1.9-.9,5.5-1.6,0,0,4.8-.9,5.7.5,0,0,.6.7-1.1,2.1,0,0-2,1.9-7.6,3.5,0,0,4.7,1.5,7.8,3.5,0,0,4.1,2.4,3.5,3.9h0Z"/>
</svg>
