<?xml version="1.0" encoding="UTF-8"?>
<svg xmlns="http://www.w3.org/2000/svg" version="1.1" viewBox="0 0 50 50">
  <defs>
    <style>
      .st0 {
        fill: #ff7a59;
      }
    </style>
  </defs>
  <path class="st0" d="M36.7,16.5v-6c1.6-.8,2.6-2.4,2.6-4.1h0c0-2.7-2.1-4.7-4.6-4.7h-.1c-2.5,0-4.6,2.1-4.6,4.6h0c0,1.9,1,3.5,2.6,4.3v6c-2.3.3-4.4,1.3-6.2,2.7L10.1,6.5c.1-.4.2-.9.2-1.3C10.3,2.3,8,0,5.2,0,2.3,0,0,2.3,0,5.2s2.3,5.2,5.2,5.2c0,0,0,0,0,0,.9,0,1.8-.2,2.5-.7l16.1,12.5c-3,4.5-2.9,10.3.2,14.7l-4.9,4.9c-.4-.1-.8-.2-1.2-.2-2.3,0-4.2,1.9-4.2,4.2,0,2.3,1.9,4.2,4.2,4.2,2.3,0,4.2-1.9,4.2-4.2,0-.4,0-.8-.2-1.2l4.8-4.8c5.7,4.4,13.9,3.3,18.3-2.4,4.4-5.7,3.3-13.9-2.4-18.3-1.8-1.3-3.8-2.2-6-2.6M34.7,36c-3.7.1-6.8-2.8-6.9-6.5-.1-3.7,2.8-6.8,6.5-6.9.1,0,.2,0,.4,0,3.7.1,6.6,3.2,6.5,6.9-.1,3.5-2.9,6.3-6.4,6.5"/>
</svg>
