<?xml version="1.0" encoding="UTF-8"?>
<svg id="logosandtypes_com" xmlns="http://www.w3.org/2000/svg" xmlns:xlink="http://www.w3.org/1999/xlink" version="1.1" viewBox="0 0 50 50">
  <defs>
    <style>
      .st0 {
        fill: url(#linear-gradient);
      }
    </style>
    <linearGradient id="linear-gradient" x1="43.5" y1="1286.6" x2="12.1" y2="1328.3" gradientTransform="translate(0 -1286.1)" gradientUnits="userSpaceOnUse">
      <stop offset="0" stop-color="#f6c755"/>
      <stop offset=".3" stop-color="#f3bf4f"/>
      <stop offset=".7" stop-color="#eead42"/>
      <stop offset=".8" stop-color="#eca53c"/>
    </linearGradient>
  </defs>
  <path class="st0" d="M44.2,21.1V2s0-2-2-2h-19.2s-2,0-2,2v17.2c0,2-1.6,3.7-3.6,3.7H7.8s-2.1,0-2.1,2.1v11.2s0,2.1,2.1,2.1h9.4c2.2,0,3.9,1.7,3.9,3.9h0v5.6s0,2.2,2.2,2.2h3.3s2.2,0,2.2-2.2v-5.6c0-2.1,1.7-3.8,3.7-3.9h2s2.1,0,2.1-2.1v-3.5s0-2.1-2.1-2.1h-3.6s-2.1,0-2.1,2.1v1.8c-.2,2.1-2.1,3.7-4.3,3.5-1.9-.2-3.3-1.7-3.5-3.6h0v-7.7c0-2.2,1.7-3.9,3.9-3.9h17.2c0,.1,2,.1,2-1.8"/>
</svg>
