<?xml version="1.0" encoding="UTF-8"?>
<svg xmlns="http://www.w3.org/2000/svg" version="1.1" viewBox="0 0 50 50">
  <defs>
    <style>
      .st0 {
        fill: #e81c1c;
      }
    </style>
  </defs>
  <path class="st0" d="M25,0l2.3,4c.5.8.5,1.8,0,2.7l-13.7,23.8,6.5,11.2c1,1.8,2.9,2.9,4.9,2.9s3.9-1.1,4.9-2.9l6.5-11.2-1.7-3-7.4,12.8c-.5.8-1.4,1.3-2.3,1.3s-1.8-.5-2.3-1.3l-5.7-9.7,12.7-22.1,2.3,4c.5.8.5,1.8,0,2.7l-8.9,15.4,1.7,3,9.7-16.8,6.3,11c1,1.7,1,3.8,0,5.5l-6.4,11.2c-1,1.7-4,5.5-9.6,5.5s-8.5-3.8-9.6-5.5l-6.4-11.2c-1-1.7-1-3.8,0-5.5L25,0Z"/>
</svg>
