<?xml version="1.0" encoding="UTF-8"?>
<svg xmlns="http://www.w3.org/2000/svg" version="1.1" viewBox="0 0 50 50">
  <defs>
    <style>
      .st0 {
        fill-rule: evenodd;
      }
    </style>
  </defs>
  <path class="st0" d="M32,.1L3.1,2.2c-2.3.2-3.1,1.7-3.1,3.4v30.3c0,1.4.5,2.5,1.7,4.1l6.8,8.5c1.1,1.4,2.1,1.7,4.3,1.6l33.6-1.9c2.8-.2,3.7-1.5,3.7-3.6V10.3c0-1.1-.5-1.4-1.8-2.4l-9.5-6.4C36.5,0,35.6-.2,32,.1h0ZM13.5,9.8c-2.7.2-3.4.2-4.9-1l-4-3c-.4-.4-.2-.9.8-1l27.8-1.9c2.3-.2,3.5.6,4.5,1.3l4.8,3.3c.2,0,.7.7.1.7l-28.7,1.7h-.4s0,0,0,0ZM10.3,44.2V15.2c0-1.3.4-1.8,1.6-1.9l33-1.8c1.1,0,1.6.6,1.6,1.8v28.8c0,1.3-.2,2.3-2,2.4l-31.5,1.7c-1.8,0-2.6-.5-2.6-2h0ZM41.5,16.7c.2.9,0,1.7-.9,1.8l-1.5.3v21.4c-1.3.7-2.5,1.1-3.6,1.1-1.6,0-2-.5-3.2-1.9l-9.9-15v14.5l3.1.7s0,1.7-2.5,1.7l-7,.4c-.2-.4,0-1.4.7-1.6l1.8-.5v-19.1l-2.5-.2c-.2-.9.3-2.1,1.7-2.2l7.5-.5,10.3,15.2v-13.4l-2.6-.3c-.2-1.1.6-1.8,1.6-1.9l7-.4h0Z"/>
</svg>
