<?xml version="1.0" encoding="UTF-8"?>
<svg xmlns="http://www.w3.org/2000/svg" version="1.1" viewBox="0 0 50 50">
  <defs>
    <style>
      .st0 {
        fill: #2eb67d;
      }

      .st1 {
        fill: #36c5f0;
      }

      .st2 {
        fill: #ecb22e;
      }

      .st3 {
        fill: #e01e5a;
      }
    </style>
  </defs>
  <path class="st3" d="M10.5,31.6c0,2.9-2.3,5.3-5.3,5.3S0,34.5,0,31.6s2.3-5.3,5.3-5.3h5.3v5.3ZM13.2,31.6c0-2.9,2.3-5.3,5.3-5.3s5.3,2.3,5.3,5.3v13.1c0,2.9-2.3,5.3-5.3,5.3s-5.3-2.3-5.3-5.3v-13.1Z"/>
  <path class="st1" d="M18.4,10.5c-2.9,0-5.3-2.3-5.3-5.3S15.5,0,18.4,0s5.3,2.3,5.3,5.3v5.3h-5.3ZM18.4,13.2c2.9,0,5.3,2.3,5.3,5.3s-2.3,5.3-5.3,5.3H5.3c-2.9,0-5.3-2.3-5.3-5.3s2.3-5.3,5.3-5.3h13.2Z"/>
  <path class="st0" d="M39.5,18.4c0-2.9,2.3-5.3,5.3-5.3s5.3,2.3,5.3,5.3-2.3,5.3-5.3,5.3h-5.3v-5.3ZM36.8,18.4c0,2.9-2.3,5.3-5.3,5.3s-5.3-2.3-5.3-5.3V5.3c0-2.9,2.3-5.3,5.3-5.3s5.3,2.3,5.3,5.3c0,0,0,13.2,0,13.2Z"/>
  <path class="st2" d="M31.6,39.5c2.9,0,5.3,2.3,5.3,5.3s-2.3,5.3-5.3,5.3-5.3-2.3-5.3-5.3v-5.3h5.3ZM31.6,36.9c-2.9,0-5.3-2.3-5.3-5.3s2.3-5.3,5.3-5.3h13.2c2.9,0,5.3,2.3,5.3,5.3s-2.3,5.3-5.3,5.3h-13.2Z"/>
</svg>
