<?xml version="1.0" encoding="UTF-8"?>
<svg xmlns="http://www.w3.org/2000/svg" version="1.1" viewBox="0 0 50 50">
  <path fill="#464342" d="M3.6,25c0,8.5,4.9,15.8,12.1,19.3L5.4,16.3c-1.2,2.7-1.9,5.6-1.9,8.7Z"/>
  <path fill="#464342" d="M39.5,23.9c0-2.7-1-4.5-1.8-5.9-1.1-1.8-2.1-3.3-2.1-5s1.5-3.8,3.6-3.8.2,0,.3,0c-3.8-3.5-8.9-5.6-14.5-5.6S10.9,7.4,7.1,13.2c.5,0,1,0,1.4,0,2.2,0,5.7-.3,5.7-.3,1.2,0,1.3,1.6.1,1.8,0,0-1.2.1-2.5.2l7.8,23.2,4.7-14.1-3.3-9.2c-1.2,0-2.2-.2-2.2-.2-1.2,0-1-1.8.1-1.8,0,0,3.5.3,5.6.3s5.7-.3,5.7-.3c1.2,0,1.3,1.6.1,1.8,0,0-1.2.1-2.5.2l7.8,23.1,2.1-7.1c.9-3,1.6-5.1,1.6-6.9Z"/>
  <path fill="#464342" d="M25.4,26.9l-6.4,18.7c1.9.6,4,.9,6.1.9s4.9-.4,7.1-1.2c0,0-.1-.2-.2-.3l-6.6-18.1Z"/>
  <path fill="#464342" d="M43.8,14.7c0,.7.1,1.4.1,2.2,0,2.2-.4,4.6-1.6,7.7l-6.6,18.9c6.4-3.7,10.7-10.6,10.7-18.5,0-3.7-1-7.2-2.6-10.3Z"/>
  <path fill="#464342" d="M25,0C11.2,0,0,11.2,0,25s11.2,25,25,25,25-11.2,25-25C50,11.2,38.8,0,25,0ZM25,48.9c-13.2,0-23.9-10.7-23.9-23.9S11.8,1.1,25,1.1s23.9,10.7,23.9,23.9-10.7,23.9-23.9,23.9Z"/>
</svg>
