<?xml version="1.0" encoding="UTF-8"?>
<svg xmlns="http://www.w3.org/2000/svg" xmlns:xlink="http://www.w3.org/1999/xlink" version="1.1" id="Capa_1" x="0px" y="0px" viewBox="0 0 512.005 512.005" style="enable-background:new 0 0 512.005 512.005;" xml:space="preserve" width="512" height="512">
<g>
	<g>
		<path style="fill:#FFE177;" d="M350.767,210.524H138.619c-5.579,0-10.102-4.523-10.102-10.102v-40.308&#10;&#9;&#9;&#9;c0-3.381,0.848-6.707,2.467-9.675l22.096-40.51c3.54-6.491,10.344-10.53,17.737-10.53h99.74c6.013,0,11.714,2.678,15.553,7.307&#10;&#9;&#9;&#9;l25.69,30.979c1.715,2.068,3.825,3.773,6.207,5.016l32.003,16.697c6.674,3.482,10.859,10.385,10.859,17.913v23.11&#10;&#9;&#9;&#9;C360.869,206.002,356.346,210.524,350.767,210.524z"/>
		<path style="fill:#FFD15B;" d="M350.011,159.399l-32.003-16.697c-2.382-1.243-4.492-2.948-6.207-5.016l-25.69-30.979&#10;&#9;&#9;&#9;c-3.839-4.629-9.539-7.307-15.553-7.307h-30.307c6.013,0,11.714,2.678,15.553,7.307l25.69,30.979&#10;&#9;&#9;&#9;c1.715,2.068,3.825,3.773,6.207,5.016l32.003,16.697c6.674,3.482,10.859,10.386,10.859,17.913v23.11&#10;&#9;&#9;&#9;c0,5.579-4.523,10.102-10.102,10.102h30.307c5.579,0,10.102-4.523,10.102-10.102v-23.11&#10;&#9;&#9;&#9;C360.869,169.784,356.684,162.881,350.011,159.399z"/>
		<path style="fill:#C4E2FF;" d="M320.208,143.85l-2.2-1.148c-2.382-1.243-4.492-2.948-6.207-5.016l-25.69-30.979&#10;&#9;&#9;&#9;c-3.839-4.629-9.539-7.307-15.553-7.307h-99.74c-7.394,0-14.197,4.039-17.737,10.53l-18.502,33.92H320.208z"/>
		<path style="fill:#B3DAFE;" d="M255.804,106.707l25.69,30.979c1.715,2.068,3.825,3.773,6.207,5.016l2.2,1.148h30.307l-2.2-1.148&#10;&#9;&#9;&#9;c-2.382-1.243-4.492-2.948-6.207-5.016l-25.69-30.979c-3.839-4.629-9.539-7.307-15.553-7.307h-30.307&#10;&#9;&#9;&#9;C246.265,99.4,251.965,102.078,255.804,106.707z"/>
		<circle style="fill:#7A6D79;" cx="179.028" cy="210.524" r="30.307"/>
		<circle style="fill:#7A6D79;" cx="300.256" cy="210.524" r="30.307"/>
		<path style="fill:#685E68;" d="M313.743,183.384c2.023,4.063,3.167,8.64,3.167,13.487c0,16.738-13.569,30.307-30.307,30.307&#10;&#9;&#9;&#9;c-4.847,0-9.424-1.144-13.487-3.167c4.963,9.968,15.249,16.82,27.14,16.82c16.738,0,30.307-13.569,30.307-30.307&#10;&#9;&#9;&#9;C330.562,198.633,323.71,188.348,313.743,183.384z"/>
		<path style="fill:#685E68;" d="M192.515,183.384c2.023,4.063,3.167,8.64,3.167,13.487c0,16.738-13.569,30.307-30.307,30.307&#10;&#9;&#9;&#9;c-4.847,0-9.424-1.144-13.487-3.167c4.963,9.968,15.249,16.82,27.14,16.82c16.738,0,30.307-13.569,30.307-30.307&#10;&#9;&#9;&#9;C209.335,198.633,202.483,188.348,192.515,183.384z"/>
	</g>
	<g>
		<path style="fill:#FED2A4;" d="M16.657,285.173L16.657,285.173c8.9-5.548,20.601-2.969,26.345,5.805l48.78,74.523l41.48,16.121&#10;&#9;&#9;&#9;c-1.909-3.646-2.96-7.814-2.867-12.236c0.29-13.838,12.018-24.716,25.859-24.716h46.679c5.441,0,10.808-1.267,15.675-3.7&#10;&#9;&#9;&#9;l46.387-23.193c4.489-2.244,9.439-3.413,14.457-3.413h27.532c3.475,0,6.926,0.56,10.223,1.659l55.637,18.546h30.307l0,128.592&#10;&#9;&#9;&#9;l-152.937,11.892c-2.084,0.162-4.174,0.243-6.265,0.243h-48.03c-11.215,0-22.248-2.843-32.066-8.264L77.03,419.097&#10;&#9;&#9;&#9;c-10.566-5.833-19.15-14.688-24.652-25.43l-42.685-83.33C5.122,301.414,8.149,290.477,16.657,285.173z"/>
		<path style="fill:#FFBD86;" d="M372.843,334.567l-32.052-10.684c-43.657,69.897-121.264,116.408-209.747,116.408&#10;&#9;&#9;&#9;c-5.6,0-11.152-0.205-16.66-0.571l49.467,27.31c9.818,5.421,20.851,8.264,32.066,8.264h48.03c2.091,0,4.181-0.081,6.265-0.243&#10;&#9;&#9;&#9;L403.15,463.16l0-128.592H372.843z"/>
		<path style="fill:#D8ECFE;" d="M403.15,475.204V321.649c0-5.579,4.523-10.102,10.102-10.102h20.205v173.759h-20.205&#10;&#9;&#9;&#9;C407.673,485.306,403.15,480.783,403.15,475.204z"/>
		<path style="fill:#FD8087;" d="M433.456,494.398V302.455c0-5.579,4.523-10.102,10.102-10.102h50.778&#10;&#9;&#9;&#9;c5.579,0,10.102,4.523,10.102,10.102v191.943c0,5.579-4.523,10.102-10.102,10.102h-50.778&#10;&#9;&#9;&#9;C437.979,504.5,433.456,499.977,433.456,494.398z"/>
		<path style="fill:#FE646F;" d="M494.336,504.5l-30.307,0c5.579,0,10.102-4.523,10.102-10.102l0-191.943&#10;&#9;&#9;&#9;c0-5.579-4.523-10.102-10.102-10.102h30.307c5.579,0,10.102,4.523,10.102,10.102l0,191.943&#10;&#9;&#9;&#9;C504.439,499.977,499.916,504.5,494.336,504.5z"/>
	</g>
	<path style="fill:#BBEC6C;" d="M113.433,63.824h-10.469v13.84c0.269,8.852-11.339,13.617-17.396,7.213L55.555,54.873&#10;&#9;&#9;c-1.989-1.989-2.989-4.605-2.99-7.21l0,0.003c0-2.606,1-5.223,2.99-7.213l30.014-30.004c6.057-6.404,17.665-1.639,17.396,7.213&#10;&#9;&#9;v13.84h194.499c78.171,0,142.583,62.846,142.795,141.028c0.222,78.171-63.311,141.836-141.432,141.836H196.239&#10;&#9;&#9;c-4.465,0-8.082-3.617-8.082-8.082V290.12c0-4.465,3.617-8.082,8.082-8.082h102.588c60.26,0,109.104-48.855,109.104-109.104&#10;&#9;&#9;c0-30.135-12.214-57.411-31.953-77.151c-19.74-19.74-47.016-31.953-77.151-31.953H113.431L113.433,63.824z"/>
	<path style="fill:#A2E62E;" d="M319.394,33.175c11.144,13.107,20.952,27.385,29.196,42.635&#10;&#9;&#9;c35.236,18.089,59.345,54.789,59.345,97.121c0,32.934-14.593,62.46-37.666,82.465c-4.405,16.978-10.577,33.24-18.294,48.594&#10;&#9;&#9;c51.841-21.098,88.452-72.091,88.287-131.46C440.065,101.804,387.332,43.623,319.394,33.175z"/>
	
		<line style="fill:none;stroke:#000000;stroke-width:15;stroke-linecap:round;stroke-linejoin:round;stroke-miterlimit:10;" x1="134.578" y1="143.85" x2="318.704" y2="143.85"/>
	
		<line style="fill:none;stroke:#000000;stroke-width:15;stroke-linecap:round;stroke-linejoin:round;stroke-miterlimit:10;" x1="269.944" y1="210.525" x2="209.334" y2="210.525"/>
	<path style="fill:none;stroke:#000000;stroke-width:15;stroke-linecap:round;stroke-linejoin:round;stroke-miterlimit:10;" d="&#10;&#9;&#9;M148.724,210.525h-10.1c-5.58,0-10.11-4.52-10.11-10.1v-40.31c0-3.38,0.85-6.71,2.47-9.68l22.1-40.51&#10;&#9;&#9;c3.54-6.49,10.34-10.53,17.73-10.53h99.74c6.02,0,11.72,2.68,15.56,7.31l25.69,30.98c1.71,2.07,3.82,3.77,6.2,5.02l32.01,16.69&#10;&#9;&#9;c6.67,3.49,10.86,10.39,10.86,17.92v23.11c0,5.58-4.53,10.1-10.11,10.1h-20.2"/>
	
		<circle style="fill:none;stroke:#000000;stroke-width:15;stroke-linecap:round;stroke-linejoin:round;stroke-miterlimit:10;" cx="179.028" cy="210.524" r="30.307"/>
	
		<circle style="fill:none;stroke:#000000;stroke-width:15;stroke-linecap:round;stroke-linejoin:round;stroke-miterlimit:10;" cx="300.256" cy="210.524" r="30.307"/>
	
		<line style="fill:none;stroke:#000000;stroke-width:15;stroke-linecap:round;stroke-linejoin:round;stroke-miterlimit:10;" x1="300.256" y1="210.524" x2="300.256" y2="210.524"/>
	
		<line style="fill:none;stroke:#000000;stroke-width:15;stroke-linecap:round;stroke-linejoin:round;stroke-miterlimit:10;" x1="179.028" y1="210.524" x2="179.028" y2="210.524"/>
	
		<line style="fill:none;stroke:#000000;stroke-width:15;stroke-linecap:round;stroke-linejoin:round;stroke-miterlimit:10;" x1="218.44" y1="99.4" x2="218.44" y2="143.85"/>
	
		<line style="fill:none;stroke:#000000;stroke-width:15;stroke-linecap:round;stroke-linejoin:round;stroke-miterlimit:10;" x1="232.773" y1="174.156" x2="242.875" y2="174.156"/>
	<path style="fill:none;stroke:#000000;stroke-width:15;stroke-linecap:round;stroke-linejoin:round;stroke-miterlimit:10;" d="&#10;&#9;&#9;M284.384,472.395l-34.17,2.66c-2.09,0.16-4.18,0.24-6.27,0.24h-48.03c-11.21,0-22.24-2.84-32.06-8.26l-86.82-47.94&#10;&#9;&#9;c-10.57-5.83-19.15-14.69-24.66-25.43l-42.68-83.33c-4.57-8.92-1.54-19.86,6.96-25.16c3.17-1.98,6.7-2.92,10.19-2.92&#10;&#9;&#9;c6.3,0,12.46,3.08,16.16,8.72l48.78,74.53l41.48,16.12c-1.91-3.65-2.96-7.82-2.87-12.24c0.29-13.84,12.02-24.72,25.86-24.72h46.68&#10;&#9;&#9;c5.44,0,10.81-1.26,15.67-3.7l46.39-23.19c4.49-2.24,9.44-3.41,14.46-3.41h27.53c3.47,0,6.93,0.56,10.22,1.66l55.64,18.54h30.31"/>
	
		<line style="fill:none;stroke:#000000;stroke-width:15;stroke-linecap:round;stroke-linejoin:round;stroke-miterlimit:10;" x1="403.154" y1="463.155" x2="319.264" y2="469.685"/>
	<path style="fill:none;stroke:#000000;stroke-width:15;stroke-linecap:round;stroke-linejoin:round;stroke-miterlimit:10;" d="&#10;&#9;&#9;M403.15,475.204V321.649c0-5.579,4.523-10.102,10.102-10.102h20.205v173.759h-20.205&#10;&#9;&#9;C407.673,485.306,403.15,480.783,403.15,475.204z"/>
	<path style="fill:none;stroke:#000000;stroke-width:15;stroke-linecap:round;stroke-linejoin:round;stroke-miterlimit:10;" d="&#10;&#9;&#9;M504.434,358.885v135.51c0,5.58-4.52,10.11-10.1,10.11h-50.78c-5.57,0-10.1-4.53-10.1-10.11v-191.94c0-5.58,4.53-10.1,10.1-10.1&#10;&#9;&#9;h50.78c5.58,0,10.1,4.52,10.1,10.1v21.43"/>
	<path style="fill:none;stroke:#000000;stroke-width:15;stroke-linecap:round;stroke-linejoin:round;stroke-miterlimit:10;" d="&#10;&#9;&#9;M130.389,369.925c0,13.948,11.307,25.256,25.256,25.256h80.963l13.653,14.967"/>
	<path style="fill:none;stroke:#000000;stroke-width:15;stroke-linecap:round;stroke-linejoin:round;stroke-miterlimit:10;" d="&#10;&#9;&#9;M198.674,31.505h98.79c78.17,0,142.58,62.84,142.8,141.03c0.22,78.17-63.32,141.83-141.44,141.83h-102.58&#10;&#9;&#9;c-4.47,0-8.09-3.62-8.09-8.08v-16.16c0-4.47,3.62-8.09,8.09-8.09h102.58c60.26,0,109.11-48.85,109.11-109.1&#10;&#9;&#9;c0-30.14-12.22-57.41-31.96-77.15c-19.74-19.74-47.01-31.96-77.15-31.96h-185.39h-10.47v13.84c0.27,8.85-11.34,13.62-17.4,7.21&#10;&#9;&#9;l-30.01-30c-1.99-1.99-2.99-4.61-2.99-7.21c0-1.3,0.25-2.61,0.75-3.84c0.5-1.22,1.25-2.38,2.24-3.37l30.01-30.01&#10;&#9;&#9;c6.06-6.4,17.67-1.63,17.4,7.22v13.84h60.71"/>
</g>















</svg>
