<?xml version="1.0" encoding="UTF-8"?>
<svg version="1.1" xmlns="http://www.w3.org/2000/svg" width="1515" height="1464">
<path d="M0 0 C499.95 0 999.9 0 1515 0 C1515 483.12 1515 966.24 1515 1464 C1015.05 1464 515.1 1464 0 1464 C0 980.88 0 497.76 0 0 Z " fill="#FCFDFE" transform="translate(0,0)"/>
<path d="M0 0 C2.52206604 1.04074506 3.29817652 2.15868862 4.79541016 4.42236328 C5.27880859 5.14101563 5.76220703 5.85966797 6.26025391 6.60009766 C6.75138672 7.35484375 7.24251953 8.10958984 7.74853516 8.88720703 C8.25513672 9.64582031 8.76173828 10.40443359 9.28369141 11.18603516 C10.53236584 13.0590468 11.76998567 14.93845884 12.99853516 16.82470703 C9.98242972 20.0500638 6.79241468 22.43976246 3.12353516 24.88720703 C-11.80490377 35.02511331 -25.51104245 46.87094624 -39.00146484 58.82470703 C-39.71061035 59.44901611 -40.41975586 60.0733252 -41.15039062 60.71655273 C-47.36965959 66.24386205 -53.32940539 71.99716814 -59.19799805 77.89086914 C-60.6945141 79.39277628 -62.19634784 80.88921765 -63.69873047 82.38525391 C-69.0101586 87.69263524 -74.14155818 93.09676509 -79.00146484 98.82470703 C-79.98596347 99.95464114 -80.97160839 101.0835777 -81.95849609 102.21142578 C-101.18577208 124.3730248 -118.24274909 148.47404379 -133.00146484 173.82470703 C-133.47422852 174.62811523 -133.94699219 175.43152344 -134.43408203 176.25927734 C-156.6784071 214.16701853 -173.64537262 254.54716825 -184.33740234 297.18310547 C-184.92406539 299.51681655 -185.52200302 301.84712045 -186.12646484 304.17626953 C-192.52079676 328.96270324 -197.12009419 354.28027346 -199.00146484 379.82470703 C-199.08831543 380.97986816 -199.17516602 382.1350293 -199.26464844 383.32519531 C-200.1559974 396.10753562 -200.24357204 408.89050461 -200.25146484 421.69970703 C-200.25247192 422.840336 -200.253479 423.98096497 -200.2545166 425.15615845 C-200.2202719 482.8136611 -190.47239107 540.53168002 -169.37646484 594.32470703 C-169.07188354 595.10507324 -168.76730225 595.88543945 -168.45349121 596.68945312 C-163.1278921 610.30756278 -157.37135416 623.65896346 -151.00146484 636.82470703 C-150.59508789 637.67838867 -150.18871094 638.53207031 -149.77001953 639.41162109 C-129.43822013 682.05442162 -100.58341601 725.79242628 -66.23193359 758.56689453 C-64.29587778 760.52668483 -62.51578454 762.53189731 -60.72412109 764.62158203 C-57.13512048 768.75628706 -53.27608878 772.49356442 -49.25146484 776.19970703 C-48.19886475 777.17568848 -48.19886475 777.17568848 -47.125 778.17138672 C-45.72456305 779.46819454 -44.32243112 780.76317479 -42.91845703 782.05615234 C-41.27451153 783.57280303 -39.63970604 785.09825838 -38.00927734 786.62939453 C-31.55331847 792.62558185 -24.75722927 798.06324288 -17.78662109 803.43798828 C-16.04387101 804.7917657 -14.31724214 806.16344902 -12.59521484 807.54345703 C60.08880451 865.69485757 153.47281298 903.35461226 287.99853516 911.82470703 C287.99853516 919.08470703 287.99853516 926.34470703 287.99853516 933.82470703 C263.72018113 934.19040609 239.62701032 933.32041361 215.65527344 929.25878906 C212.62726978 928.76404632 209.59384942 928.32131931 206.55712891 927.88330078 C195.28975224 926.24699347 184.29681752 924.43866073 173.30908203 921.42724609 C170.59728373 920.72006961 167.87154998 920.09603238 165.13916016 919.47314453 C134.74214029 912.42932807 105.32109693 901.87579024 76.99853516 888.82470703 C75.86383789 888.30408691 74.72914063 887.7834668 73.56005859 887.24707031 C38.72732937 871.1519809 6.41564 851.16037771 -24.00146484 827.82470703 C-24.62859375 827.34469238 -25.25572266 826.86467773 -25.90185547 826.37011719 C-33.56679192 820.48497096 -40.88326416 814.36845643 -48.00146484 807.82470703 C-49.33068865 806.65336038 -50.66384892 805.4864611 -52.00146484 804.32470703 C-60.17763143 797.18671487 -68.11126748 789.87971204 -75.77075195 782.18579102 C-77.19483976 780.75630987 -78.62424528 779.33230192 -80.05419922 777.90869141 C-85.24763517 772.70801722 -90.23131114 767.4139252 -95.00146484 761.82470703 C-96.02273819 760.667845 -97.046143 759.51286076 -98.07177734 758.35986328 C-106.17400852 749.17821006 -113.68641501 739.64136043 -121.00146484 729.82470703 C-121.4888916 729.17469727 -121.97631836 728.5246875 -122.47851562 727.85498047 C-129.31741944 718.72556815 -135.83236113 709.41986261 -142.00146484 699.82470703 C-142.49372559 699.0594873 -142.98598633 698.29426758 -143.49316406 697.50585938 C-188.0520812 627.81399115 -212.62734036 550.77639276 -221.76025391 468.91014099 C-221.91801118 467.54622114 -222.08903701 466.18375402 -222.27490234 464.82337952 C-223.22560893 457.48556848 -223.2206908 450.13157134 -223.27490234 442.74267578 C-223.28118149 442.01796333 -223.28746063 441.29325089 -223.29393005 440.54657745 C-223.34033209 435.03514863 -223.36386163 429.52380965 -223.37646484 424.01220703 C-223.37847145 423.20265186 -223.38047806 422.39309669 -223.38254547 421.55900955 C-223.43411749 394.68602937 -222.39458763 368.38940562 -218.00146484 341.82470703 C-217.88546936 341.10629639 -217.76947388 340.38788574 -217.64996338 339.64770508 C-207.65962858 277.91495922 -185.95788317 217.5622143 -154.00146484 163.82470703 C-152.97207215 162.06342458 -151.94342437 160.30170653 -150.91552734 158.53955078 C-138.37386299 137.18260138 -124.00998586 116.73352848 -108.00146484 97.82470703 C-107.13242629 96.78219566 -106.26396637 95.73920175 -105.39599609 94.69580078 C-99.96639898 88.19438208 -94.37742753 81.87173337 -88.61865234 75.66064453 C-86.21377722 73.05476492 -83.85355977 70.41563796 -81.50146484 67.76220703 C-74.82706994 60.33559947 -67.81695356 53.23983238 -60.21630859 46.75830078 C-57.88856928 44.72614741 -55.63069732 42.63171824 -53.37329102 40.5222168 C-47.11881188 34.68295022 -40.72158788 29.12874429 -34.00146484 23.82470703 C-33.33985352 23.30118652 -32.67824219 22.77766602 -31.99658203 22.23828125 C-26.69954526 18.05473214 -21.36554288 13.92189226 -16.00146484 9.82470703 C-15.3039209 9.28974609 -14.60637695 8.75478516 -13.88769531 8.20361328 C-11.97842852 6.74911006 -10.05607439 5.31456464 -8.12646484 3.88720703 C-7.27991333 3.24054077 -7.27991333 3.24054077 -6.41625977 2.58081055 C-2.55592971 -0.2238543 -2.55592971 -0.2238543 0 0 Z " fill="#0391AB" transform="translate(448.00146484375,311.17529296875)"/>
<path d="M0 0 C0 7.26 0 14.52 0 22 C-3.96 22.495 -3.96 22.495 -8 23 C-23.88286599 25.43648533 -37.68003097 33.04186954 -47.30859375 46.140625 C-53.90916754 56.36243102 -58.1188211 66.61207303 -58.13142776 78.8414917 C-58.1334804 79.52040401 -58.13553303 80.19931633 -58.13764787 80.89880174 C-58.14331133 83.17832098 -58.14186142 85.45777966 -58.14044189 87.73730469 C-58.14302592 89.38640061 -58.14603918 91.03549591 -58.1494453 92.68459034 C-58.15751442 97.22022985 -58.15930482 101.75585354 -58.16004276 106.29149938 C-58.16189351 111.18196236 -58.16944104 116.07241713 -58.17617798 120.96287537 C-58.18976203 131.65939089 -58.19578636 142.35590267 -58.20018864 153.05242538 C-58.20295139 159.73267445 -58.20718885 166.41292208 -58.21169281 173.09317017 C-58.22388644 191.59171966 -58.234185 210.09026799 -58.2375679 228.58882141 C-58.23778747 229.77288761 -58.23800703 230.95695381 -58.23823325 232.1769008 C-58.23845153 233.36379348 -58.23866981 234.55068615 -58.2388947 235.77354527 C-58.23933817 238.17862002 -58.23978473 240.58369478 -58.24023438 242.98876953 C-58.2404558 244.18176851 -58.24067723 245.37476749 -58.24090537 246.60391796 C-58.24485176 265.92651601 -58.26230052 285.24907632 -58.2855939 304.5716598 C-58.30932026 324.41377011 -58.32177037 344.2558615 -58.32293582 364.09798622 C-58.32385195 375.23693522 -58.32958849 386.37583506 -58.34775543 397.51477051 C-58.36317386 407.00190986 -58.36826665 416.48898486 -58.36001733 425.97613436 C-58.35611678 430.81416472 -58.35701129 435.65206555 -58.37107468 440.49007988 C-58.38384943 444.92548308 -58.38258481 449.3606599 -58.37048396 453.79606295 C-58.36853312 455.39438672 -58.37157685 456.99272673 -58.38032833 458.59102774 C-58.44499532 471.20754754 -57.2088416 483.06261724 -51.1875 494.375 C-50.83276611 495.055625 -50.47803223 495.73625 -50.11254883 496.4375 C-42.92142841 509.89426361 -30.81974913 517.9170758 -16.6875 523.25 C-11.15021611 524.37622723 -5.63864583 524.65121778 0 525 C0 532.59 0 540.18 0 548 C-22.8847917 548 -41.89780851 539.45057762 -58.625 523.875 C-72.60115037 509.32277174 -81.10481549 488.96773846 -81.13422108 468.82708836 C-81.13657331 468.1366369 -81.13892554 467.44618544 -81.14134905 466.73481122 C-81.14799028 464.42805488 -81.14758231 462.12135551 -81.14717102 459.81459045 C-81.15047269 458.14115754 -81.15419889 456.46772541 -81.1583125 454.7942943 C-81.16830616 450.20055781 -81.17204504 445.60683439 -81.17470181 441.01308858 C-81.17861268 436.05648012 -81.18819044 431.09988192 -81.19691467 426.14328003 C-81.21665662 414.17568066 -81.22674225 402.20808047 -81.23564246 390.24046889 C-81.24002893 384.60057833 -81.2453948 378.9606887 -81.25063133 373.32079887 C-81.26764106 354.56568249 -81.28213454 335.81056668 -81.28938007 317.05544376 C-81.29128987 312.19085248 -81.29321022 307.32626119 -81.29516602 302.46166992 C-81.29564976 301.25264519 -81.2961335 300.04362045 -81.2966319 298.7979586 C-81.30492968 279.2188415 -81.33026352 259.63978554 -81.36274669 240.06069512 C-81.39584536 219.9461743 -81.41383136 199.83168452 -81.41702431 179.71713632 C-81.41918676 168.42887385 -81.4278967 157.14070056 -81.45348549 145.85246468 C-81.4752308 136.23772164 -81.48322405 126.62308946 -81.47351871 117.00832463 C-81.46898518 112.10708721 -81.47080499 107.20607834 -81.49028015 102.30487251 C-81.50799246 97.80827392 -81.50684922 93.31206923 -81.49138286 88.81546598 C-81.48901897 87.19830354 -81.49326621 85.58111324 -81.50521151 83.9639932 C-81.60003063 70.26706012 -79.84900874 56.89322569 -73.25 44.625 C-72.90493408 43.96346924 -72.55986816 43.30193848 -72.2043457 42.62036133 C-69.09899952 36.84744875 -65.44838873 31.8230738 -61 27 C-60.17757812 26.08605469 -59.35515625 25.17210937 -58.5078125 24.23046875 C-42.97115325 7.77061671 -22.49251288 -0.73345151 0 0 Z " fill="#019D93" transform="translate(760,114)"/>
<path d="M0 0 C11.41147169 1.30746059 22.59947648 3.39236245 33.85516357 5.65579224 C49.49813734 8.79888288 65.15601739 11.82352606 80.875 14.5625 C81.60804352 14.69023804 82.34108704 14.81797607 83.09634399 14.94958496 C87.06316575 15.63931026 91.03101602 16.32283314 95 17 C89.22049305 52.13648518 89.22049305 52.13648518 80 60 C73.13367358 64.22908686 65.90197849 64.99772456 58 64 C48.10466166 61.64625447 39.68418987 57.70729743 34 49 C33.0690918 46.43408203 33.0690918 46.43408203 32.32421875 43.7578125 C31.94463013 42.41807373 31.94463013 42.41807373 31.55737305 41.05126953 C31.37343994 40.37435059 31.18950684 39.69743164 31 39 C29.85934082 39.42410156 28.71868164 39.84820313 27.54345703 40.28515625 C23.32168414 41.85385688 19.09834454 43.41830057 14.87451172 44.98144531 C13.04465217 45.6593155 11.21522285 46.33834822 9.38623047 47.01855469 C6.76120743 47.99457951 4.13467888 48.96644911 1.5078125 49.9375 C0.68693146 50.24373291 -0.13394958 50.54996582 -0.97970581 50.86547852 C-6.77225659 53 -6.77225659 53 -9 53 C-8.67 49.04 -8.34 45.08 -8 41 C-3.93120348 39.48224069 0.13991252 37.97091692 4.21313477 36.46508789 C5.59364508 35.95375804 6.97354763 35.44078377 8.3527832 34.92602539 C16.47493736 31.8960754 24.56953736 29.07404695 33 27 C32.979375 25.72125 32.95875 24.4425 32.9375 23.125 C32.875 19.25 32.875 19.25 34 17 C33.34660645 16.95101562 32.69321289 16.90203125 32.02001953 16.8515625 C24.89260308 16.2669556 17.91345223 15.25168351 10.875 14 C9.83601563 13.82210937 8.79703125 13.64421875 7.7265625 13.4609375 C0.12824901 12.12824901 0.12824901 12.12824901 -1 11 C-1.14650063 7.1177333 -1.03901761 3.7355157 0 0 Z " fill="#0A0C0C" transform="translate(1207,807)"/>
<path d="M0 0 C3.4073719 1.70368595 4.5700224 2.33256239 6.84765625 5.01953125 C7.36489258 5.62313477 7.88212891 6.22673828 8.41503906 6.84863281 C9.23053223 7.82074707 9.23053223 7.82074707 10.0625 8.8125 C10.63323242 9.48249023 11.20396484 10.15248047 11.79199219 10.84277344 C13.53387151 12.89027956 15.26694336 14.94502572 17 17 C17.99271667 18.16602306 18.98616006 19.33142796 19.98046875 20.49609375 C24.95579176 26.33427967 29.84521036 32.2384013 34.6875 38.1875 C37.72004003 41.87572436 40.81093999 45.51262854 43.90307617 49.15087891 C47.65397367 53.57183837 51.33376344 58.04722832 54.98046875 62.5546875 C56.80498315 64.76386742 58.69712889 66.88155772 60.625 69 C61.40875 69.99 62.1925 70.98 63 72 C61.90299703 75.29100892 60.35787283 76.76943465 57.86328125 79.109375 C54.9968154 80.47950962 53.06899582 79.7058198 50 79 C47.45986988 77.92068632 45.02746785 76.80445804 42.56640625 75.5703125 C41.85978851 75.22392731 41.15317078 74.87754211 40.42514038 74.5206604 C38.13405447 73.39580767 35.84836077 72.2604275 33.5625 71.125 C31.98227605 70.34712018 30.40162535 69.57010669 28.82055664 68.79394531 C26.44774068 67.62893153 24.07522079 66.46335649 21.70414734 65.2947998 C14.26093995 61.62691533 6.77717965 58.04816942 -0.71850586 54.48876953 C-6.51521992 51.72972126 -12.26755363 48.89020672 -18 46 C-17.43152344 46.556875 -16.86304688 47.11375 -16.27734375 47.6875 C-11.28583844 52.62067386 -6.54999082 57.66063455 -2 63 C-1.07212718 64.0759631 -0.14369443 65.15144346 0.78515625 66.2265625 C6.19456866 72.49808104 11.53195769 78.81686901 16.75390625 85.24609375 C20.7936052 90.19911594 24.9007201 95.09626851 29 100 C27.31847927 103.74020498 25.30960527 105.56134348 22 108 C18.23618138 106.49278852 16.41536518 104.35083069 13.9375 101.1875 C13.14988281 100.19878906 12.36226562 99.21007813 11.55078125 98.19140625 C10.92743896 97.40660889 10.92743896 97.40660889 10.29150391 96.60595703 C8.11858468 93.90397921 5.87158672 91.26576673 3.625 88.625 C3.16552979 88.08335205 2.70605957 87.5417041 2.23266602 86.98364258 C0.8226566 85.32167945 -0.5885027 83.66069959 -2 82 C-7.95769961 74.99045825 -13.87441115 67.95726514 -19.6796875 60.8203125 C-22.29428789 57.64229654 -24.95641424 54.50764815 -27.625 51.375 C-31.89543802 46.35832945 -36.02232847 41.25378458 -40 36 C-38.27350831 32.25532624 -36.54766941 30.22760637 -33 28 C-29.01216795 28.40326867 -25.72864024 29.8977719 -22.125 31.58984375 C-20.98530762 32.12182373 -19.84561523 32.65380371 -18.67138672 33.2019043 C-17.44745659 33.78015148 -16.22366405 34.35868997 -15 34.9375 C-13.73600049 35.53134791 -12.47183867 36.12485046 -11.20751953 36.71801758 C-8.6644931 37.91232547 -6.12316158 39.11014212 -3.58300781 40.31054688 C-0.43262254 41.79601063 2.72333819 43.26837892 5.8828125 44.734375 C17.20644614 50.01667195 28.16301808 55.78097496 39 62 C36.24237153 58.47881766 33.35226962 55.15462261 30.3125 51.875 C26.17845062 47.35470367 22.26126925 42.71404548 18.4140625 37.94921875 C15.66137063 34.58630231 12.83783684 31.29101563 10 28 C6.2594232 23.6512525 2.53683327 19.29039382 -1.125 14.875 C-1.82882812 14.02679687 -2.53265625 13.17859375 -3.2578125 12.3046875 C-5 10 -5 10 -7 6 C-3.535 3.03 -3.535 3.03 0 0 Z " fill="#090C0C" transform="translate(1075,1065)"/>
<path d="M0 0 C1.77734375 1.40234375 1.77734375 1.40234375 3.375 2.9375 C3.91253906 3.43378906 4.45007813 3.93007812 5.00390625 4.44140625 C11.00183783 10.67985638 13.82480327 18.85428826 16.2578125 27.00390625 C17.60949203 31.4723625 19.020741 35.90946708 20.515625 40.33203125 C29.66294589 67.85212201 29.66294589 67.85212201 24.875 81.0625 C20.91745325 88.30191478 13.82552031 91.74241851 6.2421875 94.2421875 C-0.80095264 95.95019696 -7.41671439 95.97871188 -13.78125 92.26171875 C-19.78632628 87.94875083 -24.04220792 82.91585128 -26.625 75.9375 C-26.625 75.2775 -26.625 74.6175 -26.625 73.9375 C-22.995 72.9475 -19.365 71.9575 -15.625 70.9375 C-14.903125 72.360625 -14.18125 73.78375 -13.4375 75.25 C-10.60480336 80.27819755 -10.60480336 80.27819755 -5.625 82.9375 C0.89369283 83.91868733 5.34434575 83.03423743 10.78125 79.32421875 C12.88949428 77.48983953 14.2086395 75.74050936 14.78125 72.9765625 C15.28555428 59.99072721 9.92515191 46.4594845 5.3046875 34.48828125 C4.18084644 31.40480135 3.28772701 28.2770921 2.375 25.125 C0.40542645 18.63925586 -1.64374563 13.62228672 -7.625 9.9375 C-13.03416154 9.0906496 -18.75485728 9.03220062 -23.6875 11.625 C-27.35175793 14.50962859 -29.24376311 16.34985461 -29.9375 21.05859375 C-30.25820942 27.32244967 -28.71184438 32.45198598 -26.5 38.2734375 C-25.625 40.9375 -25.625 40.9375 -25.625 44.9375 C-24.81675781 44.64875 -24.00851562 44.36 -23.17578125 44.0625 C-22.10714844 43.69125 -21.03851562 43.32 -19.9375 42.9375 C-18.88175781 42.56625 -17.82601562 42.195 -16.73828125 41.8125 C-13.84137944 40.9983143 -11.60799377 40.76040204 -8.625 40.9375 C-7.635 43.9075 -6.645 46.8775 -5.625 49.9375 C-14.44381025 53.45007696 -23.40902945 55.76359478 -32.625 57.9375 C-44.89997794 24.40972853 -44.89997794 24.40972853 -39.5625 12.625 C-36.95668167 8.01919786 -34.05087612 4.82198138 -29.625 1.9375 C-29.00238281 1.525 -28.37976563 1.1125 -27.73828125 0.6875 C-20.12804817 -3.48725643 -7.69684792 -4.47870534 0 0 Z " fill="#0A0C0C" transform="translate(929.625,1162.0625)"/>
<path d="M0 0 C1.19287411 3.87684087 2 6.91621923 2 11 C1.15332764 11.16651062 0.30665527 11.33302124 -0.56567383 11.50457764 C-8.57109392 13.08110598 -16.57420124 14.66880394 -24.57495117 16.26887131 C-28.68762171 17.09095873 -32.80103866 17.90880626 -36.91650391 18.71679688 C-40.89321148 19.49771043 -44.8675061 20.28997892 -48.84042358 21.08994293 C-50.35135512 21.39214034 -51.86309237 21.69033958 -53.37564087 21.98433685 C-66.65385517 24.26435409 -66.65385517 24.26435409 -77.5 31.6875 C-79.96770472 37.1370146 -79.81829724 41.71738139 -77.8125 47.3125 C-75.78235414 50.32271628 -74.02148989 51.98575061 -71 54 C-61.50928844 55.50772803 -51.74268627 53.32893232 -42.46484375 51.375 C-41.12946273 51.10463706 -39.79380821 50.83562192 -38.457901 50.56787109 C-34.98711844 49.86921646 -31.51964434 49.155438 -28.05285645 48.43725586 C-22.47590254 47.28446869 -16.89430418 46.15445939 -11.31234932 45.02618408 C-9.37644904 44.63244508 -7.44210283 44.23108975 -5.50779724 43.82958984 C-4.33209671 43.58934082 -3.15639618 43.3490918 -1.94506836 43.1015625 C-0.91473984 42.88838379 0.11558868 42.67520508 1.17713928 42.45556641 C4 42 4 42 9 42 C9.495 47.445 9.495 47.445 10 53 C9.11666992 53.18062988 8.23333984 53.36125977 7.32324219 53.54736328 C3.13188903 54.40525209 -1.05916474 55.26458522 -5.25 56.125 C-6.01187622 56.28139954 -6.77375244 56.43779907 -7.55871582 56.59893799 C-19.46656349 59.045589 -31.35987749 61.55162185 -43.23925781 64.13330078 C-44.84559082 64.48110596 -44.84559082 64.48110596 -46.484375 64.8359375 C-47.40959961 65.03751465 -48.33482422 65.2390918 -49.28808594 65.44677734 C-59.43550833 67.51682228 -69.45518256 69.0056179 -78.77734375 63.609375 C-85.35886646 58.84384362 -89.61810319 53.06929031 -91 45 C-91.756061 37.30707928 -91.9340243 30.28087959 -87 24 C-77.83206536 13.67180808 -65.90259582 11.50318386 -52.79296875 8.984375 C-51.4553092 8.72165864 -50.11777167 8.45832031 -48.78034973 8.19439697 C-46.00053258 7.6477977 -43.21964122 7.10719962 -40.43774414 6.57128906 C-36.88417425 5.88643113 -33.33330496 5.18859443 -29.78309155 4.48656845 C-27.03093061 3.94343887 -24.27767815 3.40602608 -21.52404213 2.87042999 C-19.58153288 2.49189006 -17.63977932 2.10947884 -15.69804382 1.72698975 C-14.51273575 1.49965149 -13.32742767 1.27231323 -12.10620117 1.03808594 C-11.06904465 0.83697205 -10.03188812 0.63585815 -8.96330261 0.4286499 C-5.93332691 -0.00964445 -3.05704692 -0.07575053 0 0 Z " fill="#0A0D0D" transform="translate(1291,620)"/>
<path d="M0 0 C3.43887429 0.61674936 5.51826767 1.90927263 8.2734375 4.02734375 C9.50175293 4.96211548 9.50175293 4.96211548 10.75488281 5.91577148 C11.61952148 6.58294189 12.48416016 7.2501123 13.375 7.9375 C15.16829694 9.30336295 16.96257397 10.66794002 18.7578125 12.03125 C19.64243164 12.70414062 20.52705078 13.37703125 21.43847656 14.0703125 C24.99986911 16.75323727 28.61285144 19.35857976 32.25 21.9375 C32.83958496 22.35572021 33.42916992 22.77394043 34.03662109 23.20483398 C35.3562776 24.13863659 36.67787448 25.06969645 38 26 C36.44499019 29.81684226 33.96404505 32.19195732 31 35 C30.47156494 34.60731934 29.94312988 34.21463867 29.39868164 33.81005859 C26.95495222 31.99611788 24.50874379 30.18554827 22.0625 28.375 C21.23169922 27.75753906 20.40089844 27.14007813 19.54492188 26.50390625 C14.1331232 22.5029656 8.63735104 18.67642213 3 15 C2.59793335 15.86044922 2.59793335 15.86044922 2.18774414 16.73828125 C0.96177746 19.07278388 -0.42825606 21.0747674 -2.00390625 23.1875 C-2.57947266 23.96867187 -3.15503906 24.74984375 -3.74804688 25.5546875 C-4.95907077 27.18676707 -6.17262109 28.81697498 -7.38867188 30.4453125 C-7.96294922 31.22648437 -8.53722656 32.00765625 -9.12890625 32.8125 C-9.65556885 33.52019531 -10.18223145 34.22789062 -10.72485352 34.95703125 C-11.99981698 36.99970677 -12.56600518 38.64657795 -13 41 C-12.45061768 41.39791748 -11.90123535 41.79583496 -11.33520508 42.20581055 C-8.82427118 44.02845471 -6.31837162 45.857903 -3.8125 47.6875 C-2.94818359 48.31333984 -2.08386719 48.93917969 -1.19335938 49.58398438 C3.21169607 52.80760733 7.29335003 55.98638109 11 60 C9.35 62.31 7.7 64.62 6 67 C2.36705829 65.69226892 -0.44214954 64.1206365 -3.50390625 61.77734375 C-4.73850586 60.84631836 -4.73850586 60.84631836 -5.99804688 59.89648438 C-7.71203354 58.58717087 -9.42557315 57.27727194 -11.13867188 55.96679688 C-11.96044922 55.34740234 -12.78222656 54.72800781 -13.62890625 54.08984375 C-14.37213135 53.52128662 -15.11535645 52.95272949 -15.88110352 52.36694336 C-17.96610211 51.02186822 -19.57486214 50.43099085 -22 50 C-31.69968256 62.58496288 -31.69968256 62.58496288 -40 76 C-39.42491699 76.27094482 -38.84983398 76.54188965 -38.25732422 76.82104492 C-35.9717156 78.01477237 -33.97159812 79.3534762 -31.8828125 80.86328125 C-31.11066406 81.42080078 -30.33851562 81.97832031 -29.54296875 82.55273438 C-28.34607422 83.42381836 -28.34607422 83.42381836 -27.125 84.3125 C-26.33480469 84.88162109 -25.54460937 85.45074219 -24.73046875 86.03710938 C-20.34746907 89.21314325 -16.11025513 92.47786819 -12 96 C-13.2491742 99.45925163 -14.67527795 102.14693203 -17 105 C-19.90170295 103.63653947 -22.41163602 102.07360381 -24.984375 100.1640625 C-25.7477417 99.59961426 -26.5111084 99.03516602 -27.29760742 98.45361328 C-28.51154175 97.54844971 -28.51154175 97.54844971 -29.75 96.625 C-30.58313721 96.00737793 -31.41627441 95.38975586 -32.2746582 94.75341797 C-40.20625068 88.8666245 -48.10980568 82.94213255 -56 77 C-51.90701417 70.61039978 -47.4515581 64.5485305 -42.87792969 58.5 C-39.01578872 53.38189739 -35.23921549 48.20845317 -31.5 43 C-26.9250623 36.63152899 -22.27091567 30.3319313 -17.54589844 24.07421875 C-11.57201105 16.14083271 -5.78751005 8.06982901 0 0 Z " fill="#090C0C" transform="translate(1073,313)"/>
<path d="M0 0 C2.52913999 1.01085004 3.1557551 2.02791921 4.55053711 4.34692383 C5.24409302 5.47505493 5.24409302 5.47505493 5.95166016 6.62597656 C6.68316284 7.85489624 6.68316284 7.85489624 7.42944336 9.10864258 C8.48504137 10.83624108 9.54239583 12.56276732 10.60131836 14.28833008 C11.15110352 15.1890625 11.70088867 16.08979492 12.26733398 17.01782227 C15.6844847 22.52280176 19.29213442 27.90739273 22.89013672 33.29541016 C23.4122876 34.08842529 23.93443848 34.88144043 24.47241211 35.69848633 C24.93542725 36.39449951 25.39844238 37.0905127 25.87548828 37.80761719 C26.99965329 39.80987479 27.55123755 41.55240656 27.99194336 43.79614258 C26.87120474 44.63519823 25.74519788 45.46722089 24.61694336 46.29614258 C23.99045898 46.76020508 23.36397461 47.22426758 22.71850586 47.70239258 C20.99194336 48.79614258 20.99194336 48.79614258 18.99194336 48.79614258 C17.84692383 47.32739258 17.84692383 47.32739258 16.60913086 45.29614258 C16.1644043 44.57426758 15.71967773 43.85239258 15.26147461 43.10864258 C14.8012793 42.34551758 14.34108398 41.58239258 13.86694336 40.79614258 C13.16504883 39.65145508 13.16504883 39.65145508 12.44897461 38.48364258 C11.29012906 36.59164985 10.13817589 34.69579406 8.99194336 32.79614258 C4.81096099 34.26722897 1.36317139 36.42090321 -2.25805664 38.92114258 C-9.16113493 43.60502858 -16.16136475 48.12441874 -23.19555664 52.60864258 C-31.2146215 57.72549474 -39.22142975 62.85948138 -47.19555664 68.04614258 C-48.00210693 68.57054932 -48.80865723 69.09495605 -49.63964844 69.63525391 C-50.39415283 70.12662842 -51.14865723 70.61800293 -51.92602539 71.12426758 C-52.62646973 71.57995117 -53.32691406 72.03563477 -54.04858398 72.50512695 C-55.86059354 73.69898523 -57.64704829 74.92443841 -59.43383789 76.15551758 C-62.00805664 77.79614258 -62.00805664 77.79614258 -64.00805664 77.79614258 C-65.33227539 76.15161133 -65.33227539 76.15161133 -66.69555664 73.98364258 C-67.15317383 73.27594727 -67.61079102 72.56825195 -68.08227539 71.83911133 C-69.00805664 69.79614258 -69.00805664 69.79614258 -68.00805664 66.79614258 C-66.23999023 65.40844727 -66.23999023 65.40844727 -63.90649414 63.96801758 C-63.03532959 63.42314697 -62.16416504 62.87827637 -61.26660156 62.31689453 C-60.31503174 61.73254639 -59.36346191 61.14819824 -58.38305664 60.54614258 C-56.36532905 59.28570439 -54.34842785 58.02394251 -52.33227539 56.76098633 C-51.2873291 56.10855957 -50.24238281 55.45613281 -49.16577148 54.78393555 C-44.1368316 51.61819962 -39.16584396 48.36541278 -34.19555664 45.10864258 C-32.28421416 43.85846544 -30.37275775 42.60846245 -28.46118164 41.35864258 C-27.5465918 40.76051758 -26.63200195 40.16239258 -25.68969727 39.54614258 C-20.93991855 36.44650548 -16.17567597 33.36926023 -11.40917969 30.29541016 C-10.78052002 29.88959717 -10.15186035 29.48378418 -9.50415039 29.06567383 C-8.9148877 28.68620605 -8.325625 28.30673828 -7.71850586 27.91577148 C-6.01618907 26.80146592 -4.34347284 25.64978888 -2.66821289 24.49536133 C-0.00805664 22.79614258 -0.00805664 22.79614258 1.99194336 22.79614258 C1.68377686 22.33240234 1.37561035 21.86866211 1.05810547 21.39086914 C-0.33127087 19.28430194 -1.70096368 17.16561977 -3.07055664 15.04614258 C-3.55588867 14.3165332 -4.0412207 13.58692383 -4.54125977 12.83520508 C-4.9956543 12.1262207 -5.45004883 11.41723633 -5.91821289 10.68676758 C-6.34239502 10.03740234 -6.76657715 9.38803711 -7.20361328 8.71899414 C-8.00805664 6.79614258 -8.00805664 6.79614258 -7.78320312 4.66625977 C-6.41511677 1.36561678 -3.55869027 -0.36127737 0 0 Z " fill="#090C0C" transform="translate(1208.008056640625,443.203857421875)"/>
<path d="M0 0 C1.69752187 0.25245197 3.38471545 0.57645775 5.0625 0.9375 C5.98160156 1.13214844 6.90070312 1.32679688 7.84765625 1.52734375 C8.91306641 1.76130859 8.91306641 1.76130859 10 2 C9.4177592 7.90271709 8.21120358 13.22497524 6.4375 18.875 C6.17718994 19.72360596 5.91687988 20.57221191 5.64868164 21.4465332 C4.77203831 24.29965532 3.8860129 27.14977468 3 30 C1.98929858 33.27525417 0.98065525 36.55113675 -0.02758789 39.82714844 C-0.71806491 42.06912195 -1.40996192 44.31065862 -2.10327148 46.55175781 C-3.79780145 52.03896207 -5.45780019 57.5314985 -7.03271484 63.05419922 C-15.0011053 90.91400461 -15.0011053 90.91400461 -24.875 99.5 C-30.66883098 102.48231209 -38.650398 101.43864748 -45 101 C-45.66 100.67 -46.32 100.34 -47 100 C-46.01 96.7 -45.02 93.4 -44 90 C-43.25234375 89.95101562 -42.5046875 89.90203125 -41.734375 89.8515625 C-40.25710938 89.73941406 -40.25710938 89.73941406 -38.75 89.625 C-37.28820312 89.52058594 -37.28820312 89.52058594 -35.796875 89.4140625 C-32.21912968 88.88439629 -29.95201895 88.25573052 -27.7265625 85.3203125 C-23.63729807 77.17078552 -21.31340351 68.52027431 -18.80908203 59.79003906 C-17.44164737 55.07457638 -15.99944281 50.38215289 -14.5625 45.6875 C-13.97507549 43.76047303 -13.38783745 41.83338921 -12.80078125 39.90625 C-12.35919678 38.45798828 -12.35919678 38.45798828 -11.90869141 36.98046875 C-10.35461684 31.88317096 -8.80220957 26.78536596 -7.25 21.6875 C-6.82763062 20.30147583 -6.82763062 20.30147583 -6.39672852 18.88745117 C-6.12658936 18.00033447 -5.8564502 17.11321777 -5.578125 16.19921875 C-5.31708984 15.34376465 -5.05605469 14.48831055 -4.78710938 13.60693359 C-4.23836015 11.78945711 -3.69868859 9.96922566 -3.16601562 8.14697266 C-2.76672852 6.78451416 -2.76672852 6.78451416 -2.359375 5.39453125 C-2.12186523 4.5744458 -1.88435547 3.75436035 -1.63964844 2.90942383 C-1 1 -1 1 0 0 Z " fill="#0A0D0D" transform="translate(929,245)"/>
<path d="M0 0 C3.34699538 1.27754112 6.45190204 2.71552371 9.5703125 4.4765625 C10.45243408 4.97397949 11.33455566 5.47139648 12.2434082 5.98388672 C13.1943335 6.5254541 14.14525879 7.06702148 15.125 7.625 C16.13199951 8.19621582 17.13899902 8.76743164 18.17651367 9.35595703 C27.07428648 14.42618105 35.88329251 19.64170847 44.68188477 24.8815918 C52.94043153 29.79540041 61.23624976 34.63949994 69.5625 39.4375 C70.68116455 40.08251465 71.7998291 40.7275293 72.95239258 41.39208984 C77.92278432 44.29456304 77.92278432 44.29456304 83 47 C82.46884894 51.51478398 80.63379708 54.34666857 78 58 C70.26391098 53.82548149 62.61007986 49.52467846 55 45.125 C53.88423584 44.48079102 52.76847168 43.83658203 51.61889648 43.17285156 C42.26385182 37.76277649 32.96535647 32.2596225 23.67651367 26.73681641 C14.16089643 21.08221321 4.5960276 15.51683925 -5 10 C-3.61702141 6.42229452 -2.04383021 3.25154807 0 0 Z " fill="#0A0D0D" transform="translate(1154,963)"/>
<path d="M0 0 C12.78695018 1.39227538 25.36761082 3.59998579 38 6 C37.8628129 7.73215277 37.71972197 9.46383847 37.57421875 11.1953125 C37.49518311 12.15969238 37.41614746 13.12407227 37.3347168 14.11767578 C36.66106797 19.91862255 35.53542324 25.06104682 31 29 C25.29392232 32.80405178 19.6643635 32.58023065 13 32 C7.31665512 30.57055265 2.62715044 27.77616041 -0.97265625 23.109375 C-4.35708791 16.16035182 -1.73634572 7.14692303 0 0 Z " fill="#FBFBFB" transform="translate(1251,827)"/>
<path d="M0 0 C1.33855056 0.78281305 2.67073644 1.57651877 4 2.375 C5.11375 3.03628906 5.11375 3.03628906 6.25 3.7109375 C6.8275 4.13632813 7.405 4.56171875 8 5 C8 5.66 8 6.32 8 7 C5.05043472 5.63055898 2.47531189 4.12169591 0 2 C0 1.34 0 0.68 0 0 Z " fill="#CDE7F3" transform="translate(445,1154)"/>
</svg>
