<svg id="Capa_1" enable-background="new 0 0 512 512" height="512" viewBox="0 0 512 512" width="512" xmlns="http://www.w3.org/2000/svg"><g><path d="m256 0c-68.38 0-132.667 26.629-181.02 74.98-48.351 48.353-74.98 112.64-74.98 181.02 0 34.812 6.877 68.582 20.438 100.371l335.933-335.933c-31.79-13.562-65.559-20.438-100.371-20.438z" fill="#ff6378"/><path d="m256 70c-102.561 0-186 83.439-186 186 0 14.372 1.654 28.713 4.917 42.625l223.708-223.708c-13.91-3.263-28.251-4.917-42.625-4.917z" fill="#7a7a93"/><path d="m491.562 155.628-335.933 335.934c31.79 13.561 65.559 20.438 100.371 20.438 68.38 0 132.667-26.629 181.02-74.98 48.351-48.353 74.98-112.64 74.98-181.02 0-34.812-6.877-68.582-20.438-100.372z" fill="#ff1f3d"/><path d="m437.083 213.375-223.709 223.708c13.908 3.263 28.25 4.917 42.626 4.917 102.561 0 186-83.439 186-186 0-14.372-1.654-28.713-4.917-42.625z" fill="#616173"/><path d="m134.033 505.246c-5.858-5.858-5.858-15.355 0-21.213l350-350c5.858-5.858 15.355-5.858 21.213 0 5.858 5.858 5.858 15.355 0 21.213l-350 350c-5.858 5.858-15.355 5.858-21.213 0z" fill="#d0004f"/><path d="m6.754 377.967c-5.858-5.858-5.858-15.355 0-21.213l350-350c5.858-5.858 15.355-5.858 21.213 0 5.858 5.858 5.858 15.355 0 21.213l-350 350c-5.858 5.858-15.355 5.858-21.213 0z" fill="#ff1f3d"/><path d="m120.594 413.74c-4.126.361-7.179 3.998-6.818 8.125.07.813.084 1.625.038 2.411-.234 4.042-1.999 7.737-5.246 10.984-8.773 8.773-23.047 8.773-31.82 0s-8.773-23.047 0-31.82c3.189-3.189 7.202-5.325 11.606-6.178 4.067-.787 6.725-4.722 5.938-8.789-.788-4.066-4.723-6.725-8.789-5.938-7.352 1.423-14.048 4.985-19.361 10.298-14.621 14.621-14.621 38.412 0 53.033s38.412 14.621 53.033 0c5.843-5.843 9.168-13.009 9.615-20.726.087-1.508.064-3.051-.071-4.583-.361-4.126-3.999-7.178-8.125-6.817z" fill="#ff6378"/><path d="m273.011 261.323c-4.126.361-7.179 3.999-6.818 8.125.07.811.083 1.622.037 2.413-.233 4.04-1.998 7.736-5.246 10.983-8.773 8.773-23.047 8.773-31.82 0s-8.773-23.047 0-31.82c3.189-3.189 7.202-5.325 11.606-6.178 4.067-.787 6.725-4.722 5.938-8.789-.788-4.066-4.723-6.725-8.789-5.938-7.352 1.423-14.048 4.985-19.361 10.298-14.621 14.621-14.621 38.412 0 53.033s38.412 14.621 53.033 0c5.845-5.845 9.169-13.011 9.614-20.724.088-1.512.064-3.054-.07-4.586-.36-4.126-3.997-7.178-8.124-6.817z" fill="#ff6378"/><path d="m278.02 202.169c2.929-2.929 2.929-7.678 0-10.607s-7.677-2.929-10.607 0l-17.877 17.877c-2.929 2.929-2.929 7.678 0 10.607l42.426 42.426c2.929 2.929 7.677 2.929 10.607 0l17.877-17.877c2.929-2.929 2.929-7.678 0-10.607s-7.677-2.929-10.607 0l-12.573 12.573-10.607-10.607 11.255-11.255c2.929-2.929 2.929-7.678 0-10.607s-7.677-2.929-10.607 0l-11.255 11.255-10.607-10.607z" fill="#ff6378"/><path d="m380.55 99.639c2.929-2.929 2.929-7.678 0-10.607s-7.677-2.929-10.607 0l-17.877 17.877c-2.929 2.929-2.929 7.678 0 10.607l42.426 42.426c2.929 2.929 7.677 2.929 10.607 0l17.877-17.877c2.929-2.929 2.929-7.678 0-10.607s-7.677-2.929-10.607 0l-12.573 12.573-10.607-10.607 11.255-11.255c2.929-2.929 2.929-7.678 0-10.607s-7.677-2.929-10.607 0l-11.255 11.255-10.607-10.607z" fill="#ff6378"/><path d="m123.468 343.561c-.067-.031-.135-.06-.203-.088-3.328-1.388-7.125-.638-9.675 1.912-.001.001-.003.003-.005.005-2.55 2.554-3.296 6.355-1.902 9.684.024.057.049.114.074.171l25.898 57.759c1.695 3.78 6.133 5.47 9.912 3.775 3.777-1.691 5.469-6.132 3.775-9.912l-4.335-9.669 18.275-18.275 9.624 4.35c2.925 1.323 6.252.613 8.394-1.53.622-.622 1.145-1.366 1.529-2.215 1.706-3.774.029-8.217-3.745-9.923zm16.973 38.992-8.356-18.635 18.589 8.402z" fill="#ff6378"/><path d="m178.192 280.784c-.017.017-.035.035-.051.052-2.901 2.958-2.855 7.706.102 10.606l26.106 25.605-48.758-8.924c-3.23-.591-6.464.984-7.992 3.893-1.524 2.906-.983 6.467 1.338 8.788l42.347 42.347c2.929 2.929 7.677 2.929 10.607 0 2.929-2.929 2.929-7.678 0-10.607l-25.335-25.335 46.434 8.499c3.809.692 7.368-.952 9.06-4.184 1.73-3.301 1-7.281-1.91-10.191l-41.393-40.6c-2.94-2.883-7.649-2.855-10.555.051z" fill="#ff6378"/><path d="m343.649 200.107c-.01.01-.02.02-.03.03-3.251 3.287-6.74 6.804-9.488 9.558l-37.122-37.122c-2.929-2.929-7.677-2.929-10.607 0-2.929 2.929-2.929 7.678 0 10.607l42.391 42.391c2.583 2.583 6.651 2.929 9.633.821.443-.313.782-.553 5.511-5.282 2.271-2.271 5.556-5.578 10.348-10.425 2.912-2.945 2.886-7.694-.059-10.607-2.936-2.902-7.661-2.886-10.577.029z" fill="#ff6378"/><path d="m376.176 167.581c-.01.01-.02.02-.03.03-3.251 3.287-6.74 6.804-9.488 9.558l-37.122-37.122c-2.929-2.929-7.677-2.929-10.607 0-2.929 2.929-2.929 7.678 0 10.607l42.391 42.391c2.583 2.583 6.651 2.929 9.633.821.443-.313.782-.553 5.511-5.282 2.271-2.271 5.556-5.578 10.348-10.425 2.912-2.945 2.886-7.694-.059-10.607-2.936-2.903-7.661-2.887-10.577.029z" fill="#ff6378"/><path d="m401.148 57.828-12.016 12.016c-1.408 1.408-2.199 3.319-2.197 5.311.002 1.991.796 3.9 2.207 5.306 0 0 16.35 16.289 21.187 21.126 5.897 5.898 21.334 21.224 21.334 21.224 1.411 1.402 3.323 2.185 5.312 2.178 1.98-.007 3.876-.797 5.276-2.197.007-.007.013-.013.02-.02.362-.365 8.897-8.966 12.26-12.449 12.52-12.966 10.657-33.327-4.43-48.414-15.86-15.861-35.533-17.501-48.953-4.081zm42.592 42.075c-1.557 1.613-4.335 4.435-6.837 6.969-5.028-4.996-12.322-12.248-15.967-15.892-3.048-3.048-10.66-10.637-15.884-15.843l6.703-6.703c8.722-8.722 20.048-3.611 27.739 4.08 7.772 7.773 12.1 19.256 4.246 27.389z" fill="#ff6378"/><g fill="#ff1f3d"><path d="m450.096 61.904-10.606 10.606c.001.001.003.003.004.004 7.772 7.772 12.1 19.255 4.246 27.388-1.558 1.613-4.335 4.435-6.837 6.969-5.01-4.978-12.267-12.193-15.925-15.85l-10.607 10.607c5.927 5.927 21.292 21.181 21.292 21.181 1.412 1.402 3.323 2.185 5.312 2.178 1.98-.007 3.876-.797 5.276-2.197.007-.007.013-.013.02-.02.362-.365 8.897-8.966 12.26-12.449 12.52-12.966 10.657-33.327-4.43-48.414-.002 0-.003-.002-.005-.003z"/><path d="m66.142 445.867c14.621 14.621 38.412 14.621 53.033 0 5.843-5.843 9.168-13.009 9.615-20.726.087-1.508.064-3.051-.071-4.583-.36-4.127-3.998-7.179-8.124-6.818s-7.179 3.998-6.818 8.125c.07.813.084 1.625.038 2.411-.234 4.042-1.999 7.737-5.246 10.984-8.772 8.773-23.047 8.773-31.82 0-.002-.002-.003-.003-.004-.005l-10.607 10.607c.001.002.002.004.004.005z"/><path d="m218.559 293.45c14.621 14.621 38.412 14.621 53.033 0 5.845-5.845 9.169-13.011 9.614-20.724.088-1.512.064-3.054-.07-4.586-.36-4.127-3.998-7.179-8.125-6.818-4.126.361-7.179 3.999-6.818 8.125.07.811.083 1.622.037 2.413-.233 4.04-1.998 7.736-5.246 10.983-8.772 8.773-23.047 8.773-31.82 0-.001-.002-.003-.003-.004-.005l-10.607 10.607c.003.002.004.004.006.005z"/><path d="m291.963 262.472c2.929 2.929 7.677 2.929 10.607 0l17.876-17.877c2.929-2.929 2.929-7.678 0-10.607s-7.677-2.929-10.606 0l-12.573 12.573-10.607-10.607 11.255-11.255c2.929-2.929 2.929-7.678 0-10.607-.002-.002-.003-.003-.005-.004l-27.165 27.165z"/><path d="m412.37 131.459-12.573 12.573-10.607-10.607 11.255-11.255c2.929-2.929 2.929-7.678 0-10.607-.002-.002-.003-.003-.005-.004l-27.165 27.165 21.218 21.218c2.929 2.929 7.677 2.929 10.607 0l17.876-17.877c2.929-2.929 2.929-7.678 0-10.607-2.928-2.928-7.677-2.929-10.606.001z"/><path d="m150.674 372.32-10.233 10.233-3.403-7.59-11.35 11.35 11.968 26.692c1.695 3.78 6.133 5.47 9.912 3.775 3.777-1.691 5.469-6.132 3.775-9.912l-4.335-9.669 18.275-18.275 9.624 4.35c2.925 1.323 6.252.613 8.395-1.53.622-.622 1.145-1.366 1.529-2.215 1.706-3.774.029-8.217-3.745-9.923l-26.646-12.045-11.336 11.336z"/><path d="m204.349 317.047-7.942-1.454-12.89 12.89 39.473 7.225c3.809.692 7.368-.952 9.06-4.184 1.73-3.301 1-7.281-1.91-10.191l-19.928-19.546-10.607 10.607z"/><path d="m191.284 363.151c2.929 2.929 7.677 2.929 10.607 0 2.929-2.929 2.929-7.678 0-10.607l-21.218-21.218-10.607 10.607z"/><path d="m328.793 225.571c2.583 2.583 6.651 2.929 9.633.821.443-.313.782-.553 5.511-5.282 2.271-2.271 5.556-5.578 10.348-10.425 2.912-2.945 2.886-7.694-.059-10.607-2.935-2.902-7.661-2.886-10.576.029-.01.01-.02.02-.03.03-3.251 3.287-6.74 6.804-9.488 9.558l-15.914-15.914-10.607 10.607z"/><path d="m361.32 193.044c2.583 2.583 6.651 2.929 9.633.821.443-.313.782-.553 5.511-5.282 2.271-2.271 5.556-5.578 10.348-10.425 2.912-2.945 2.886-7.694-.059-10.607-2.935-2.902-7.661-2.886-10.576.029-.01.01-.02.02-.03.03-3.251 3.287-6.74 6.804-9.488 9.558l-15.914-15.914-10.607 10.607z"/></g></g></svg>