<svg id="Layer_1" enable-background="new 0 0 512 512" viewBox="0 0 512 512" xmlns="http://www.w3.org/2000/svg"><g><g><path d="m466.349 293.973h-339.857l2.262-23.929c4.204.324 8.408.647 12.612.647 69.844 0 126.433-54.97 129.022-124.175h161.359c11.645 0 21.343 8.731 22.634 20.376z" fill="#69d6f4"/><path d="m441.388 294.07h-25.871c0-21.316-17.333-38.621-38.64-38.621-21.308 0-38.64 17.305-38.64 38.621h-25.871c0-35.557 28.942-64.515 64.511-64.515s64.511 28.957 64.511 64.515z" fill="#2794ad"/><path d="m267.226 228.923h25.847v87.788h-25.847z" fill="#2794ad" transform="matrix(.685 -.729 .729 .685 -110.509 290.096)"/><path d="m173.318 438.852v47.739c0 7.51-6.168 13.41-13.41 13.41h-53.638c-7.507 0-13.41-5.899-13.41-13.41v-47.739" fill="#939393"/><path d="m499.98 438.852v47.739c0 7.51-5.903 13.41-13.41 13.41h-53.638c-7.242 0-13.41-5.899-13.41-13.41v-47.739" fill="#939393"/><g fill="#ffbc45"><path d="m499.98 319.468v119.35h-407.119v-119.35c0-13.94 11.268-25.477 25.48-25.477h356.159c14.212.001 25.48 11.537 25.48 25.477z"/><path d="m128.754 270.045-1.291 12.931-22.314-17.455c7.76 2.258 15.521 3.876 23.605 4.524z"/><path d="m460.285 229.327 5.098 53.638 34.597-26.819v-26.819z"/></g><path d="m379.559 438.819h-166.277l18.772-40.499h128.733z" fill="#665e64"/><path d="m270.712 141.346c0 1.618 0 3.553-.324 5.171-2.589 69.205-59.178 124.175-129.022 124.175-4.204 0-8.408-.324-12.612-.647-8.084-.647-15.845-2.266-23.605-4.524 0 0 0 0-.324 0-53.68-15.529-92.806-65.32-92.806-124.175.001-71.462 57.884-129.346 129.347-129.346s129.346 57.884 129.346 129.346z" fill="#ea5066"/><path d="m145.062 342.448h48.532v25.894h-48.532z" fill="#bc7713"/><path d="m399.246 342.448h48.532v25.894h-48.532z" fill="#bc7713"/><path d="m230.696 342.448h136.577v25.894h-136.577z" fill="#bc7713"/></g><path d="m185.03 79.397-43.665 43.657-43.662-43.657-18.291 18.285 43.665 43.657-43.665 43.657 18.291 18.286 43.662-43.657 43.665 43.657 18.291-18.286-43.665-43.657 43.665-43.657z" fill="#fff"/></g></svg>